<svg xmlns="http://www.w3.org/2000/svg" viewBox="0 0 1600 600" role="img" aria-labelledby="t d">
<title id="t">CEARÁ × FORTALEZA — Amora Fut</title>
<desc id="d">Banner premium de camisas de futebol da Amora Fut Streetwear.</desc>
<defs>
 <linearGradient id="bg" x1="0" x2="1"><stop stop-color="#07080a"/><stop offset=".48" stop-color="#202226"/><stop offset="1" stop-color="#07080a"/></linearGradient>
 <radialGradient id="g1"><stop stop-color="#f0f0f0" stop-opacity=".28"/><stop offset="1" stop-color="#f0f0f0" stop-opacity="0"/></radialGradient>
 <radialGradient id="g2"><stop stop-color="#2454a6" stop-opacity=".24"/><stop offset="1" stop-color="#2454a6" stop-opacity="0"/></radialGradient>
 <linearGradient id="shirt1" x1="0" y1="0" x2="1" y2="1"><stop stop-color="#f0f0f0"/><stop offset="1" stop-color="#111"/></linearGradient>
 <linearGradient id="shirt2" x1="0" y1="0" x2="1" y2="1"><stop stop-color="#2454a6"/><stop offset="1" stop-color="#111"/></linearGradient>
 <filter id="shadow"><feDropShadow dx="0" dy="18" stdDeviation="18" flood-color="#000" flood-opacity=".55"/></filter>
</defs>
<rect width="1600" height="600" fill="url(#bg)"/>
<circle cx="220" cy="290" r="360" fill="url(#g1)"/><circle cx="1380" cy="290" r="360" fill="url(#g2)"/>
<path d="M0 520 Q400 430 800 520 T1600 520 V600 H0Z" fill="#090a0c" opacity=".9"/>
<g font-family="Arial,Helvetica,sans-serif" font-weight="900">
 <text x="95" y="112" fill="#fff" font-size="55">CEARÁ</text>
 <text x="1505" y="112" fill="#fff" font-size="55" text-anchor="end">FORTALEZA</text>
 <text x="800" y="92" fill="#fff" font-size="58" text-anchor="middle">AMORA <tspan fill="#ff0b75">FUT</tspan></text>
 <text x="800" y="125" fill="#cfd0d4" font-size="15" letter-spacing="8" text-anchor="middle">STREETWEAR • DESIGNER PREMIUM</text>
</g>
<g filter="url(#shadow)" transform="translate(185 170)">
 <path d="M80 20 L175 0 250 58 325 0 420 20 385 118 350 100 350 315 150 315 150 100 115 118Z" fill="url(#shirt1)" stroke="#fff" stroke-opacity=".18" stroke-width="3"/>
 <path d="M172 3 Q250 72 328 3" fill="none" stroke="#fff" stroke-opacity=".65" stroke-width="12"/>
 <text x="250" y="195" font-family="Arial" font-size="27" font-weight="900" fill="#fff" text-anchor="middle">CEARÁ</text>
</g>
<g filter="url(#shadow)" transform="translate(995 170)">
 <path d="M80 20 L175 0 250 58 325 0 420 20 385 118 350 100 350 315 150 315 150 100 115 118Z" fill="url(#shirt2)" stroke="#fff" stroke-opacity=".18" stroke-width="3"/>
 <path d="M172 3 Q250 72 328 3" fill="none" stroke="#fff" stroke-opacity=".65" stroke-width="12"/>
 <text x="250" y="195" font-family="Arial" font-size="27" font-weight="900" fill="#fff" text-anchor="middle">FORTALEZA</text>
</g>
<g font-family="Arial,Helvetica,sans-serif" font-weight="800">
 <text x="800" y="235" fill="#ff0b75" font-size="18" letter-spacing="5" text-anchor="middle">ORGULHO NORDESTINO • FUTEBOL • ATITUDE</text>
 <rect x="620" y="262" width="360" height="46" rx="23" fill="#090a0c" stroke="#ff0b75" stroke-width="2"/>
 <text x="800" y="292" fill="#fff" font-size="14" letter-spacing="2" text-anchor="middle">VISTA SUA PAIXÃO</text>
</g>
<g transform="translate(0 520)">
 <rect width="1600" height="80" fill="#0d0e10"/>
 <text x="210" y="49" fill="#fff" font-family="Arial" font-size="16" font-weight="700">FRETE PARA TODO O BRASIL</text>
 <text x="800" y="49" fill="#fff" font-family="Arial" font-size="16" font-weight="700" text-anchor="middle">5% DE DESCONTO NO PIX</text>
 <text x="1390" y="49" fill="#fff" font-family="Arial" font-size="16" font-weight="700" text-anchor="middle">ATENDIMENTO VIA WHATSAPP</text>
</g></svg>